<svg xmlns="http://www.w3.org/2000/svg" xmlns:xlink="http://www.w3.org/1999/xlink" width="40" zoomAndPan="magnify" viewBox="0 0 30 30.000001" height="40" preserveAspectRatio="xMidYMid meet" version="1.0"><defs><clipPath id="id1"><path d="M 11 9.433594 L 29 9.433594 L 29 20 L 11 20 Z M 11 9.433594 " clip-rule="nonzero"/></clipPath><clipPath id="id2"><path d="M 0.484375 19 L 29.515625 19 L 29.515625 23.71875 L 0.484375 23.71875 Z M 0.484375 19 " clip-rule="nonzero"/></clipPath><clipPath id="id3"><path d="M 12 20 L 29.515625 20 L 29.515625 23.71875 L 12 23.71875 Z M 12 20 " clip-rule="nonzero"/></clipPath></defs><path fill="#000000" d="M 2.824219 20.386719 L 6.816406 14.589844 L 8.546875 16.613281 L 10.875 13.71875 L 13.4375 17.253906 L 15.644531 16.738281 L 18.644531 19.238281 C 17.417969 19.601562 15.550781 20.164062 14.316406 20.488281 C 10.242188 21.566406 6.59375 21.832031 2.832031 20.386719 Z M 9.261719 19.222656 L 6.816406 16.03125 L 5.347656 18.101562 L 6.460938 19.265625 L 5.996094 18.015625 L 7.554688 19.148438 L 6.597656 17.289062 L 9.261719 19.21875 Z M 9.261719 19.222656 " fill-opacity="1" fill-rule="evenodd"/><g clip-path="url(#id1)"><path fill="#ffffff" d="M 11.28125 13.207031 L 14.441406 9.269531 L 19.226562 16.070312 L 21.867188 13.101562 L 25.167969 17.433594 L 26.121094 16.527344 L 28.070312 19.445312 C 27.375 18.992188 26.605469 18.65625 25.75 18.460938 C 23.929688 18.054688 22.023438 18.351562 20.242188 18.792969 C 20.03125 18.84375 19.820312 18.898438 19.617188 18.953125 L 15.789062 15.804688 L 13.6875 16.671875 L 11.285156 13.207031 Z M 17.363281 14.910156 L 14.921875 11.71875 L 13.453125 13.789062 L 14.566406 14.953125 L 14.101562 13.703125 L 15.660156 14.835938 L 14.703125 12.976562 L 17.363281 14.90625 Z M 24.335938 17.695312 L 21.894531 14.5 L 20.421875 16.570312 L 21.539062 17.734375 L 21.070312 16.488281 L 22.628906 17.621094 L 21.671875 15.765625 L 24.335938 17.691406 Z M 24.335938 17.695312 " fill-opacity="1" fill-rule="evenodd"/></g><g clip-path="url(#id2)"><path fill="#000000" d="M 0.484375 20.15625 C 11.96875 30.277344 19.800781 14.449219 29.515625 21.828125 C 22.90625 13.582031 13.070312 26.953125 0.484375 20.15625 Z M 0.484375 20.15625 " fill-opacity="1" fill-rule="evenodd"/></g><g clip-path="url(#id3)"><path fill="#ffffff" d="M 12.699219 23.441406 C 19.527344 24.050781 22.398438 18.132812 29.425781 22.578125 C 23.421875 17.425781 18.695312 22.59375 12.699219 23.441406 Z M 12.699219 23.441406 " fill-opacity="1" fill-rule="evenodd"/></g></svg>