<svg xmlns="http://www.w3.org/2000/svg" xmlns:xlink="http://www.w3.org/1999/xlink" width="109" zoomAndPan="magnify" viewBox="0 0 81.75 59.249999" height="79" preserveAspectRatio="xMidYMid meet" version="1.0"><defs><clipPath id="id1"><path d="M 21 20 L 48 20 L 48 47.230469 L 21 47.230469 Z M 21 20 " clip-rule="nonzero"/></clipPath><clipPath id="id2"><path d="M 47 7.859375 L 61 7.859375 L 61 47.230469 L 47 47.230469 Z M 47 7.859375 " clip-rule="nonzero"/></clipPath><clipPath id="id3"><path d="M 47 20 L 61 20 L 61 47.230469 L 47 47.230469 Z M 47 20 " clip-rule="nonzero"/></clipPath><clipPath id="id4"><path d="M 60.636719 33.898438 L 60.636719 44.175781 C 60.636719 44.609375 60.550781 45.023438 60.386719 45.421875 C 60.222656 45.820312 59.984375 46.171875 59.679688 46.476562 C 59.375 46.78125 59.023438 47.019531 58.625 47.183594 C 58.226562 47.347656 57.808594 47.429688 57.378906 47.429688 L 47.089844 47.429688 L 47.089844 20.363281 Z M 60.636719 33.898438 " clip-rule="evenodd"/></clipPath><linearGradient x1="103.199998" gradientTransform="matrix(0.857231, 0, 0, 0.856553, -41.375683, 0.406394)" y1="39.101002" x2="119.000001" gradientUnits="userSpaceOnUse" y2="39.101002" id="id5"><stop stop-opacity="1" stop-color="rgb(91.398621%, 43.499756%, 4.299927%)" offset="0"/><stop stop-opacity="1" stop-color="rgb(91.514587%, 43.617249%, 4.18396%)" offset="0.0625"/><stop stop-opacity="1" stop-color="rgb(91.752625%, 43.861389%, 3.945923%)" offset="0.125"/><stop stop-opacity="1" stop-color="rgb(91.996765%, 44.113159%, 3.701782%)" offset="0.1875"/><stop stop-opacity="1" stop-color="rgb(92.240906%, 44.363403%, 3.456116%)" offset="0.25"/><stop stop-opacity="1" stop-color="rgb(92.485046%, 44.613647%, 3.211975%)" offset="0.3125"/><stop stop-opacity="1" stop-color="rgb(92.730713%, 44.863892%, 2.967834%)" offset="0.375"/><stop stop-opacity="1" stop-color="rgb(92.974854%, 45.114136%, 2.723694%)" offset="0.4375"/><stop stop-opacity="1" stop-color="rgb(93.218994%, 45.36438%, 2.479553%)" offset="0.5"/><stop stop-opacity="1" stop-color="rgb(93.463135%, 45.61615%, 2.235413%)" offset="0.5625"/><stop stop-opacity="1" stop-color="rgb(93.707275%, 45.866394%, 1.991272%)" offset="0.625"/><stop stop-opacity="1" stop-color="rgb(93.951416%, 46.116638%, 1.747131%)" offset="0.6875"/><stop stop-opacity="1" stop-color="rgb(94.195557%, 46.366882%, 1.502991%)" offset="0.75"/><stop stop-opacity="1" stop-color="rgb(94.439697%, 46.617126%, 1.25885%)" offset="0.8125"/><stop stop-opacity="1" stop-color="rgb(94.683838%, 46.867371%, 1.014709%)" offset="0.875"/><stop stop-opacity="1" stop-color="rgb(94.927979%, 47.117615%, 0.770569%)" offset="0.9375"/><stop stop-opacity="1" stop-color="rgb(95.172119%, 47.369385%, 0.526428%)" offset="1"/></linearGradient></defs><g clip-path="url(#id1)"><path fill="#ffc517" d="M 39.03125 47.429688 L 24.375 47.429688 C 22.574219 47.429688 21.117188 45.976562 21.117188 44.175781 L 21.117188 37.152344 C 21.117188 35.351562 22.574219 33.898438 24.375 33.898438 L 33.632812 33.898438 L 33.632812 23.617188 C 33.632812 21.820312 35.089844 20.363281 36.890625 20.363281 L 47.175781 20.363281 L 47.175781 47.34375 L 39.03125 47.34375 Z M 39.03125 47.429688 " fill-opacity="1" fill-rule="evenodd"/></g><g clip-path="url(#id2)"><path fill="#f57e02" d="M 57.460938 47.429688 L 47.175781 47.429688 L 47.175781 11.113281 C 47.175781 9.316406 48.632812 7.859375 50.433594 7.859375 L 57.460938 7.859375 C 59.261719 7.859375 60.71875 9.316406 60.71875 11.113281 L 60.71875 44.175781 C 60.632812 45.972656 59.175781 47.429688 57.460938 47.429688 Z M 57.460938 47.429688 " fill-opacity="1" fill-rule="evenodd"/></g><g clip-path="url(#id3)"><g clip-path="url(#id4)"><path fill="url(#id5)" d="M 47.089844 20.363281 L 47.089844 47.230469 L 60.636719 47.230469 L 60.636719 20.363281 Z M 47.089844 20.363281 " fill-rule="nonzero"/></g></g></svg>