<svg xmlns="http://www.w3.org/2000/svg" xmlns:xlink="http://www.w3.org/1999/xlink" width="109" zoomAndPan="magnify" viewBox="0 0 81.75 59.249999" height="79" preserveAspectRatio="xMidYMid meet" version="1.0"><defs><clipPath id="id1"><path d="M 7.539062 0 L 70 0 L 70 39 L 7.539062 39 Z M 7.539062 0 " clip-rule="nonzero"/></clipPath><clipPath id="id2"><path d="M 7.539062 0 L 56 0 L 56 39 L 7.539062 39 Z M 7.539062 0 " clip-rule="nonzero"/></clipPath><clipPath id="id3"><path d="M 55.152344 26.34375 L 76.585938 26.34375 L 76.585938 50.363281 L 55.152344 50.363281 Z M 55.152344 26.34375 " clip-rule="nonzero"/></clipPath><clipPath id="id4"><path d="M 55 26 L 76.628906 26 L 76.628906 48 L 55 48 Z M 55 26 " clip-rule="nonzero"/></clipPath><clipPath id="id5"><path d="M 25.371094 56.183594 L 51.683594 56.183594 L 51.683594 58.507812 L 25.371094 58.507812 Z M 25.371094 56.183594 " clip-rule="nonzero"/></clipPath><clipPath id="id6"><path d="M 7.539062 38 L 56 38 L 56 46 L 7.539062 46 Z M 7.539062 38 " clip-rule="nonzero"/></clipPath><clipPath id="id7"><path d="M 55.152344 50.21875 L 76.585938 50.21875 L 76.585938 57.496094 L 55.152344 57.496094 Z M 55.152344 50.21875 " clip-rule="nonzero"/></clipPath><clipPath id="id8"><path d="M 55.152344 19.066406 L 76.585938 19.066406 L 76.585938 26.492188 L 55.152344 26.492188 Z M 55.152344 19.066406 " clip-rule="nonzero"/></clipPath></defs><g clip-path="url(#id1)"><path fill="#2e6bb1" d="M 69.445312 2.394531 L 69.445312 19.160156 L 57.550781 19.160156 C 56.242188 19.160156 55.171875 20.238281 55.171875 21.558594 L 55.171875 38.324219 L 7.585938 38.324219 L 7.585938 2.394531 C 7.585938 1.078125 8.65625 0 9.964844 0 L 67.066406 0 C 68.375 0 69.445312 1.078125 69.445312 2.394531 " fill-opacity="1" fill-rule="nonzero"/></g><g clip-path="url(#id2)"><path fill="#3a83c7" d="M 55.921875 0 L 17.851562 38.324219 L 7.585938 38.324219 L 7.585938 2.394531 C 7.585938 1.078125 8.65625 0 9.964844 0 L 55.921875 0 " fill-opacity="1" fill-rule="nonzero"/></g><g clip-path="url(#id3)"><path fill="#2e6bb1" d="M 76.585938 26.347656 L 76.585938 50.300781 L 55.171875 50.300781 L 55.171875 26.347656 L 76.585938 26.347656 " fill-opacity="1" fill-rule="nonzero"/></g><path fill="#2e6bb1" d="M 55.171875 28.742188 L 55.171875 45.507812 L 52.792969 45.507812 L 52.792969 28.742188 L 55.171875 28.742188 " fill-opacity="1" fill-rule="nonzero"/><g clip-path="url(#id4)"><path fill="#3a83c7" d="M 76.15625 26.347656 L 55.171875 47.472656 L 55.171875 26.347656 Z M 76.15625 26.347656 " fill-opacity="1" fill-rule="nonzero"/></g><path fill="#c4c2c1" d="M 46.84375 57.484375 L 30.191406 57.484375 L 31.855469 49.101562 L 32.570312 45.507812 L 44.464844 45.507812 L 45.179688 49.101562 L 46.84375 57.484375 " fill-opacity="1" fill-rule="nonzero"/><g clip-path="url(#id5)"><path fill="#ccccc9" d="M 50.414062 58.683594 L 26.621094 58.683594 C 25.964844 58.683594 25.429688 58.148438 25.429688 57.484375 C 25.429688 56.824219 25.964844 56.289062 26.621094 56.289062 L 50.414062 56.289062 C 51.070312 56.289062 51.601562 56.824219 51.601562 57.484375 C 51.601562 58.148438 51.070312 58.683594 50.414062 58.683594 " fill-opacity="1" fill-rule="nonzero"/></g><g clip-path="url(#id6)"><path fill="#ccccc9" d="M 25.429688 45.507812 L 55.171875 45.507812 L 55.171875 38.324219 L 7.585938 38.324219 L 7.585938 43.113281 C 7.585938 44.4375 8.652344 45.507812 9.964844 45.507812 L 25.429688 45.507812 " fill-opacity="1" fill-rule="nonzero"/></g><g clip-path="url(#id7)"><path fill="#ccccc9" d="M 74.203125 57.484375 L 57.550781 57.484375 C 56.238281 57.484375 55.171875 56.414062 55.171875 55.089844 L 55.171875 50.300781 L 76.585938 50.300781 L 76.585938 55.089844 C 76.585938 56.414062 75.519531 57.484375 74.203125 57.484375 " fill-opacity="1" fill-rule="nonzero"/></g><path fill="#f5f6f5" d="M 67.066406 55.089844 L 64.6875 55.089844 L 64.6875 52.695312 L 67.066406 52.695312 L 67.066406 55.089844 " fill-opacity="1" fill-rule="nonzero"/><path fill="#c2202b" d="M 13.535156 5.988281 L 11.15625 5.988281 L 11.15625 3.59375 L 13.535156 3.59375 L 13.535156 5.988281 " fill-opacity="1" fill-rule="nonzero"/><path fill="#f14621" d="M 18.292969 5.988281 L 15.914062 5.988281 L 15.914062 3.59375 L 18.292969 3.59375 L 18.292969 5.988281 " fill-opacity="1" fill-rule="nonzero"/><path fill="#299540" d="M 23.050781 5.988281 L 20.671875 5.988281 L 20.671875 3.59375 L 23.050781 3.59375 L 23.050781 5.988281 " fill-opacity="1" fill-rule="nonzero"/><path fill="#76d0f4" d="M 26.621094 23.953125 L 12.34375 23.953125 L 12.34375 14.371094 L 26.621094 14.371094 L 26.621094 23.953125 " fill-opacity="1" fill-rule="nonzero"/><path fill="#76d0f4" d="M 45.65625 23.953125 L 31.378906 23.953125 L 31.378906 14.371094 L 45.65625 14.371094 L 45.65625 23.953125 " fill-opacity="1" fill-rule="nonzero"/><path fill="#76d0f4" d="M 64.6875 14.371094 L 64.6875 19.160156 L 57.550781 19.160156 C 56.242188 19.160156 55.171875 20.238281 55.171875 21.558594 L 55.171875 23.953125 L 50.414062 23.953125 L 50.414062 14.371094 L 64.6875 14.371094 " fill-opacity="1" fill-rule="nonzero"/><path fill="#1a3859" d="M 27.8125 10.777344 L 17.105469 10.777344 L 17.105469 8.382812 L 27.8125 8.382812 L 27.8125 10.777344 " fill-opacity="1" fill-rule="nonzero"/><path fill="#1a3859" d="M 46.84375 10.777344 L 30.191406 10.777344 L 30.191406 8.382812 L 46.84375 8.382812 L 46.84375 10.777344 " fill-opacity="1" fill-rule="nonzero"/><path fill="#1a3859" d="M 65.878906 10.777344 L 49.222656 10.777344 L 49.222656 8.382812 L 65.878906 8.382812 L 65.878906 10.777344 " fill-opacity="1" fill-rule="nonzero"/><path fill="#1a3859" d="M 14.726562 10.777344 L 11.15625 10.777344 L 11.15625 8.382812 L 14.726562 8.382812 L 14.726562 10.777344 " fill-opacity="1" fill-rule="nonzero"/><path fill="#1a3859" d="M 19.484375 29.941406 L 11.15625 29.941406 L 11.15625 27.542969 L 19.484375 27.542969 L 19.484375 29.941406 " fill-opacity="1" fill-rule="nonzero"/><path fill="#1a3859" d="M 51.601562 34.730469 L 43.273438 34.730469 L 43.273438 32.335938 L 51.601562 32.335938 L 51.601562 34.730469 " fill-opacity="1" fill-rule="nonzero"/><path fill="#1a3859" d="M 51.601562 29.941406 L 21.863281 29.941406 L 21.863281 27.542969 L 51.601562 27.542969 L 51.601562 29.941406 " fill-opacity="1" fill-rule="nonzero"/><path fill="#1a3859" d="M 40.894531 34.730469 L 11.15625 34.730469 L 11.15625 32.335938 L 40.894531 32.335938 L 40.894531 34.730469 " fill-opacity="1" fill-rule="nonzero"/><g clip-path="url(#id8)"><path fill="#ccccc9" d="M 76.585938 26.347656 L 55.171875 26.347656 L 55.171875 21.558594 C 55.171875 20.234375 56.238281 19.160156 57.550781 19.160156 L 74.203125 19.160156 C 75.519531 19.160156 76.585938 20.234375 76.585938 21.558594 L 76.585938 26.347656 " fill-opacity="1" fill-rule="nonzero"/></g><path fill="#76d0f4" d="M 71.824219 38.324219 L 59.929688 38.324219 L 59.929688 31.136719 L 71.824219 31.136719 L 71.824219 38.324219 " fill-opacity="1" fill-rule="nonzero"/><path fill="#1a3859" d="M 73.015625 45.507812 L 58.738281 45.507812 L 58.738281 43.113281 L 73.015625 43.113281 L 73.015625 45.507812 " fill-opacity="1" fill-rule="nonzero"/><path fill="#b0b0ae" d="M 45.179688 49.101562 L 31.855469 49.101562 L 32.570312 45.507812 L 44.464844 45.507812 L 45.179688 49.101562 " fill-opacity="1" fill-rule="nonzero"/><path fill="#2b6e92" d="M 55.171875 28.742188 L 55.171875 45.507812 L 52.792969 45.507812 L 52.792969 28.742188 L 55.171875 28.742188 " fill-opacity="1" fill-rule="nonzero"/><path fill="#2b6e92" d="M 55.171875 21.558594 L 55.171875 28.742188 L 52.792969 28.742188 L 52.792969 23.953125 C 52.792969 22.636719 53.863281 21.558594 55.171875 21.558594 " fill-opacity="1" fill-rule="nonzero"/><path fill="#8edaf3" d="M 26.621094 19.160156 L 12.34375 19.160156 L 12.34375 14.371094 L 26.621094 14.371094 L 26.621094 19.160156 " fill-opacity="1" fill-rule="nonzero"/><path fill="#8edaf3" d="M 45.65625 19.160156 L 31.378906 19.160156 L 31.378906 14.371094 L 45.65625 14.371094 L 45.65625 19.160156 " fill-opacity="1" fill-rule="nonzero"/><path fill="#8edaf3" d="M 71.824219 34.730469 L 59.929688 34.730469 L 59.929688 31.136719 L 71.824219 31.136719 L 71.824219 34.730469 " fill-opacity="1" fill-rule="nonzero"/><path fill="#8edaf3" d="M 64.6875 19.160156 L 50.414062 19.160156 L 50.414062 14.371094 L 64.6875 14.371094 L 64.6875 19.160156 " fill-opacity="1" fill-rule="nonzero"/></svg>