<svg xmlns="http://www.w3.org/2000/svg" xmlns:xlink="http://www.w3.org/1999/xlink" width="109" zoomAndPan="magnify" viewBox="0 0 81.75 99.749997" height="133" preserveAspectRatio="xMidYMid meet" version="1.0"><defs><clipPath id="id1"><path d="M 40.875 62.320312 L 81.5 62.320312 L 81.5 99.472656 L 40.875 99.472656 Z M 40.875 62.320312 " clip-rule="nonzero"/></clipPath><clipPath id="id2"><path d="M 0 5.3125 L 81.5 5.3125 L 81.5 87.0625 L 0 87.0625 Z M 0 5.3125 " clip-rule="nonzero"/></clipPath><clipPath id="id3"><path d="M 0 5.3125 L 81.5 5.3125 L 81.5 87.0625 L 0 87.0625 Z M 0 5.3125 " clip-rule="nonzero"/></clipPath></defs><g clip-path="url(#id1)"><path fill="#00749a" d="M 61.214844 206.320312 C 61.214844 255.367188 89.386719 297.625 130.515625 317.449219 L 72.175781 156.234375 C 65.398438 171.882812 61.214844 188.589844 61.214844 206.320312 Z M 268.351562 200.054688 C 268.351562 184.933594 262.609375 173.953125 257.910156 166.140625 C 251.644531 155.703125 245.914062 147.359375 245.914062 136.929688 C 245.914062 125.453125 254.785156 115.011719 266.792969 115.011719 L 268.359375 115.011719 C 246.433594 94.664062 217.222656 82.660156 184.875 82.660156 C 179.777344 82.703125 174.703125 83.058594 169.648438 83.722656 C 164.59375 84.382812 159.597656 85.351562 154.664062 86.625 C 149.726562 87.894531 144.886719 89.460938 140.140625 91.324219 C 135.394531 93.183594 130.78125 95.328125 126.296875 97.75 C 121.8125 100.175781 117.488281 102.859375 113.332031 105.8125 C 109.175781 108.761719 105.210938 111.953125 101.445312 115.382812 C 97.675781 118.816406 94.128906 122.464844 90.804688 126.328125 C 87.480469 130.195312 84.402344 134.246094 81.574219 138.484375 L 89.402344 138.484375 C 102.453125 138.484375 122.269531 136.917969 122.269531 136.917969 C 129.058594 136.398438 129.578125 146.304688 123.316406 147.359375 C 123.316406 147.359375 116.527344 148.402344 109.230469 148.402344 L 154.105469 281.964844 L 181.230469 201.089844 L 161.925781 148.394531 L 148.875 147.367188 C 142.089844 146.847656 143.132812 136.929688 149.398438 136.929688 C 149.398438 136.929688 169.738281 138.496094 181.742188 138.496094 C 194.792969 138.496094 214.609375 136.929688 214.609375 136.929688 C 221.398438 136.40625 221.917969 146.316406 215.65625 147.367188 C 215.65625 147.367188 208.867188 148.414062 201.570312 148.414062 L 246.433594 281.46875 L 259.035156 240.25 C 264.253906 223.03125 268.421875 211.035156 268.421875 200.074219 Z M 186.964844 217.269531 L 149.917969 324.757812 C 160.871094 327.890625 172.867188 329.976562 184.875 329.976562 C 199.480469 329.976562 213.046875 327.277344 226.09375 323.191406 C 225.574219 322.671875 225.574219 322.148438 225.050781 321.625 Z M 293.398438 147.367188 L 294.441406 159.96875 C 294.441406 172.570312 292.351562 186.582031 285.054688 204.320312 L 247.488281 313.363281 C 284.011719 291.972656 309.046875 252.316406 309.046875 206.410156 C 308.527344 185.015625 302.785156 165.1875 293.386719 147.457031 Z M 184.875 62.320312 C 105.566406 62.320312 40.875 127.011719 40.875 206.320312 C 40.875 285.625 105.566406 350.320312 184.875 350.320312 C 264.183594 350.320312 328.875 285.625 328.875 206.320312 C 328.875 127.011719 264.183594 62.320312 184.875 62.320312 Z M 184.875 344.054688 C 109.222656 344.054688 47.660156 282.496094 47.660156 206.320312 C 47.664062 204.074219 47.722656 201.832031 47.835938 199.589844 C 47.949219 197.347656 48.117188 195.109375 48.339844 192.875 C 48.5625 190.640625 48.84375 188.414062 49.175781 186.195312 C 49.507812 183.976562 49.894531 181.765625 50.332031 179.5625 C 50.773438 177.363281 51.269531 175.175781 51.816406 172.996094 C 52.363281 170.820312 52.964844 168.660156 53.617188 166.511719 C 54.269531 164.363281 54.976562 162.234375 55.734375 160.121094 C 56.492188 158.007812 57.304688 155.914062 58.164062 153.84375 C 59.023438 151.769531 59.933594 149.71875 60.894531 147.691406 C 61.855469 145.660156 62.867188 143.65625 63.925781 141.679688 C 64.984375 139.699219 66.09375 137.75 67.246094 135.824219 C 68.402344 133.898438 69.605469 132.003906 70.851562 130.136719 C 72.101562 128.273438 73.390625 126.4375 74.730469 124.636719 C 76.066406 122.832031 77.449219 121.0625 78.875 119.328125 C 80.296875 117.59375 81.761719 115.894531 83.269531 114.230469 C 84.777344 112.570312 86.324219 110.945312 87.914062 109.355469 C 89.5 107.769531 91.125 106.222656 92.789062 104.714844 C 94.453125 103.207031 96.152344 101.742188 97.886719 100.316406 C 99.621094 98.890625 101.390625 97.511719 103.191406 96.171875 C 104.992188 94.835938 106.828125 93.542969 108.695312 92.296875 C 110.558594 91.046875 112.457031 89.847656 114.378906 88.691406 C 116.304688 87.535156 118.257812 86.429688 120.234375 85.371094 C 122.214844 84.3125 124.21875 83.300781 126.246094 82.339844 C 128.273438 81.378906 130.324219 80.46875 132.398438 79.605469 C 134.472656 78.746094 136.566406 77.9375 138.679688 77.179688 C 140.789062 76.421875 142.921875 75.714844 145.066406 75.0625 C 147.214844 74.40625 149.378906 73.808594 151.554688 73.257812 C 153.730469 72.710938 155.917969 72.21875 158.121094 71.777344 C 160.320312 71.335938 162.53125 70.949219 164.753906 70.617188 C 166.972656 70.285156 169.199219 70.007812 171.433594 69.785156 C 173.664062 69.5625 175.902344 69.394531 178.144531 69.28125 C 180.386719 69.167969 182.628906 69.109375 184.875 69.105469 C 187.121094 69.109375 189.363281 69.167969 191.605469 69.28125 C 193.847656 69.394531 196.085938 69.5625 198.316406 69.785156 C 200.550781 70.007812 202.777344 70.285156 204.996094 70.617188 C 207.21875 70.949219 209.429688 71.335938 211.628906 71.777344 C 213.832031 72.21875 216.019531 72.710938 218.195312 73.257812 C 220.371094 73.808594 222.535156 74.40625 224.683594 75.0625 C 226.828125 75.714844 228.960938 76.421875 231.070312 77.179688 C 233.183594 77.9375 235.277344 78.746094 237.351562 79.605469 C 239.425781 80.46875 241.476562 81.378906 243.503906 82.339844 C 245.53125 83.300781 247.535156 84.3125 249.515625 85.371094 C 251.492188 86.429688 253.445312 87.535156 255.371094 88.691406 C 257.292969 89.847656 259.191406 91.046875 261.054688 92.296875 C 262.921875 93.542969 264.757812 94.835938 266.558594 96.171875 C 268.359375 97.511719 270.128906 98.890625 271.863281 100.316406 C 273.597656 101.742188 275.296875 103.207031 276.960938 104.714844 C 278.625 106.222656 280.25 107.769531 281.835938 109.355469 C 283.425781 110.945312 284.972656 112.570312 286.480469 114.230469 C 287.988281 115.894531 289.453125 117.59375 290.875 119.328125 C 292.300781 121.0625 293.683594 122.832031 295.019531 124.636719 C 296.359375 126.4375 297.648438 128.273438 298.898438 130.136719 C 300.144531 132.003906 301.347656 133.898438 302.503906 135.824219 C 303.65625 137.75 304.765625 139.699219 305.824219 141.679688 C 306.882812 143.65625 307.894531 145.660156 308.855469 147.691406 C 309.816406 149.71875 310.726562 151.769531 311.585938 153.84375 C 312.445312 155.914062 313.257812 158.007812 314.015625 160.121094 C 314.773438 162.234375 315.476562 164.363281 316.132812 166.511719 C 316.785156 168.660156 317.386719 170.820312 317.933594 172.996094 C 318.480469 175.175781 318.976562 177.363281 319.417969 179.5625 C 319.855469 181.765625 320.242188 183.976562 320.574219 186.195312 C 320.90625 188.414062 321.1875 190.640625 321.410156 192.875 C 321.632812 195.109375 321.800781 197.347656 321.914062 199.589844 C 322.027344 201.832031 322.085938 204.074219 322.089844 206.320312 C 322.089844 282.496094 260.527344 344.054688 184.875 344.054688 Z M 184.875 344.054688 " fill-opacity="1" fill-rule="nonzero"/></g><g clip-path="url(#id2)"><path fill="#ffffff" d="M 81.75 46.1875 C 81.75 47.527344 81.683594 48.863281 81.554688 50.195312 C 81.421875 51.527344 81.226562 52.851562 80.964844 54.164062 C 80.703125 55.476562 80.378906 56.773438 79.988281 58.054688 C 79.601562 59.335938 79.152344 60.59375 78.636719 61.832031 C 78.125 63.066406 77.554688 64.277344 76.921875 65.457031 C 76.292969 66.636719 75.605469 67.785156 74.859375 68.898438 C 74.117188 70.011719 73.320312 71.085938 72.472656 72.121094 C 71.621094 73.15625 70.722656 74.144531 69.777344 75.09375 C 68.832031 76.039062 67.839844 76.9375 66.804688 77.785156 C 65.769531 78.636719 64.695312 79.433594 63.582031 80.175781 C 62.472656 80.917969 61.324219 81.605469 60.144531 82.238281 C 58.960938 82.867188 57.753906 83.441406 56.515625 83.953125 C 55.28125 84.464844 54.019531 84.914062 52.742188 85.304688 C 51.460938 85.691406 50.164062 86.015625 48.847656 86.277344 C 47.535156 86.539062 46.214844 86.734375 44.882812 86.867188 C 43.550781 87 42.214844 87.0625 40.875 87.0625 C 39.535156 87.0625 38.199219 87 36.867188 86.867188 C 35.535156 86.734375 34.214844 86.539062 32.902344 86.277344 C 31.585938 86.015625 30.289062 85.691406 29.007812 85.304688 C 27.730469 84.914062 26.46875 84.464844 25.234375 83.953125 C 23.996094 83.441406 22.789062 82.867188 21.605469 82.238281 C 20.425781 81.605469 19.277344 80.917969 18.167969 80.175781 C 17.054688 79.433594 15.980469 78.636719 14.945312 77.785156 C 13.910156 76.9375 12.917969 76.039062 11.972656 75.09375 C 11.027344 74.144531 10.128906 73.15625 9.277344 72.121094 C 8.429688 71.085938 7.632812 70.011719 6.890625 68.898438 C 6.144531 67.785156 5.457031 66.636719 4.828125 65.457031 C 4.195312 64.277344 3.625 63.066406 3.113281 61.832031 C 2.597656 60.59375 2.148438 59.335938 1.761719 58.054688 C 1.371094 56.773438 1.046875 55.476562 0.785156 54.164062 C 0.523438 52.851562 0.328125 51.527344 0.195312 50.195312 C 0.0664062 48.863281 0 47.527344 0 46.1875 C 0 44.851562 0.0664062 43.515625 0.195312 42.183594 C 0.328125 40.851562 0.523438 39.527344 0.785156 38.214844 C 1.046875 36.902344 1.371094 35.605469 1.761719 34.324219 C 2.148438 33.042969 2.597656 31.785156 3.113281 30.546875 C 3.625 29.308594 4.195312 28.101562 4.828125 26.921875 C 5.457031 25.738281 6.144531 24.59375 6.890625 23.480469 C 7.632812 22.367188 8.429688 21.292969 9.277344 20.257812 C 10.128906 19.222656 11.027344 18.234375 11.972656 17.285156 C 12.917969 16.339844 13.910156 15.441406 14.945312 14.59375 C 15.980469 13.742188 17.054688 12.945312 18.167969 12.203125 C 19.277344 11.460938 20.425781 10.773438 21.605469 10.140625 C 22.789062 9.507812 23.996094 8.9375 25.234375 8.425781 C 26.46875 7.914062 27.730469 7.460938 29.007812 7.074219 C 30.289062 6.683594 31.585938 6.359375 32.902344 6.097656 C 34.214844 5.839844 35.535156 5.640625 36.867188 5.511719 C 38.199219 5.378906 39.535156 5.3125 40.875 5.3125 C 42.214844 5.3125 43.550781 5.378906 44.882812 5.511719 C 46.214844 5.640625 47.535156 5.839844 48.847656 6.097656 C 50.164062 6.359375 51.460938 6.683594 52.742188 7.074219 C 54.019531 7.460938 55.28125 7.914062 56.515625 8.425781 C 57.753906 8.9375 58.960938 9.507812 60.144531 10.140625 C 61.324219 10.773438 62.472656 11.460938 63.582031 12.203125 C 64.695312 12.945312 65.769531 13.742188 66.804688 14.59375 C 67.839844 15.441406 68.832031 16.339844 69.777344 17.285156 C 70.722656 18.234375 71.621094 19.222656 72.472656 20.257812 C 73.320312 21.292969 74.117188 22.367188 74.859375 23.480469 C 75.605469 24.59375 76.292969 25.738281 76.921875 26.921875 C 77.554688 28.101562 78.125 29.308594 78.636719 30.546875 C 79.152344 31.785156 79.601562 33.042969 79.988281 34.324219 C 80.378906 35.605469 80.703125 36.902344 80.964844 38.214844 C 81.226562 39.527344 81.421875 40.851562 81.554688 42.183594 C 81.683594 43.515625 81.75 44.851562 81.75 46.1875 Z M 81.75 46.1875 " fill-opacity="1" fill-rule="nonzero"/></g><path fill="#01579b" d="M 5.816406 46.1875 C 5.816406 60.070312 13.878906 72.058594 25.578125 77.742188 L 8.851562 31.917969 C 6.902344 36.28125 5.816406 41.097656 5.816406 46.1875 Z M 64.546875 44.421875 C 64.546875 40.09375 62.988281 37.085938 61.660156 34.757812 C 59.878906 31.84375 58.207031 29.417969 58.207031 26.535156 C 58.207031 23.324219 60.664062 20.3125 64.101562 20.3125 C 64.257812 20.3125 64.398438 20.324219 64.550781 20.328125 C 58.316406 14.597656 50.003906 11.128906 40.875 11.128906 C 28.625 11.128906 17.84375 17.417969 11.578125 26.9375 C 12.402344 26.957031 13.175781 26.96875 13.839844 26.96875 C 17.496094 26.96875 23.183594 26.535156 23.183594 26.535156 C 25.066406 26.40625 25.296875 29.191406 23.398438 29.417969 C 23.398438 29.417969 21.507812 29.648438 19.394531 29.75 L 32.167969 67.734375 L 39.839844 44.726562 L 34.375 29.75 C 32.488281 29.648438 30.695312 29.417969 30.695312 29.417969 C 28.808594 29.292969 29.027344 26.40625 30.914062 26.535156 C 30.914062 26.535156 36.710938 26.96875 40.15625 26.96875 C 43.824219 26.96875 49.5 26.535156 49.5 26.535156 C 51.386719 26.40625 51.613281 29.191406 49.726562 29.417969 C 49.726562 29.417969 47.816406 29.648438 45.710938 29.75 L 58.375 67.4375 L 61.878906 55.761719 C 63.660156 51.203125 64.546875 47.4375 64.546875 44.421875 Z M 41.488281 49.25 L 30.96875 79.820312 C 34.117188 80.753906 37.433594 81.25 40.875 81.25 C 44.953125 81.25 48.871094 80.539062 52.523438 79.261719 C 52.4375 79.105469 52.335938 78.945312 52.265625 78.777344 Z M 71.644531 29.359375 C 71.800781 30.476562 71.882812 31.675781 71.882812 32.960938 C 71.882812 36.53125 71.210938 40.527344 69.210938 45.539062 L 58.507812 76.507812 C 68.929688 70.433594 75.933594 59.128906 75.933594 46.191406 C 75.933594 40.097656 74.375 34.363281 71.644531 29.359375 Z M 71.644531 29.359375 " fill-opacity="1" fill-rule="nonzero"/><g clip-path="url(#id3)"><path fill="#01579b" d="M 0 46.1875 C 0 68.71875 18.332031 87.0625 40.875 87.0625 C 63.417969 87.0625 81.75 68.71875 81.75 46.1875 C 81.75 23.660156 63.417969 5.3125 40.875 5.3125 C 18.332031 5.3125 0 23.660156 0 46.1875 Z M 1.875 46.1875 C 1.875 24.695312 19.363281 7.199219 40.871094 7.199219 C 62.382812 7.199219 79.875 24.695312 79.875 46.1875 C 79.875 67.683594 62.382812 85.183594 40.875 85.183594 C 19.367188 85.183594 1.875 67.683594 1.875 46.1875 Z M 1.875 46.1875 " fill-opacity="1" fill-rule="nonzero"/></g></svg>