<svg xmlns="http://www.w3.org/2000/svg" xmlns:xlink="http://www.w3.org/1999/xlink" width="250" zoomAndPan="magnify" viewBox="0 0 187.5 63.749997" height="85" preserveAspectRatio="xMidYMid meet" version="1.0"><defs><g/><clipPath id="id1"><path d="M 31 9.390625 L 77 9.390625 L 77 37 L 31 37 Z M 31 9.390625 " clip-rule="nonzero"/></clipPath><clipPath id="id2"><path d="M 2.398438 35 L 80.300781 35 L 80.300781 48.34375 L 2.398438 48.34375 Z M 2.398438 35 " clip-rule="nonzero"/></clipPath><clipPath id="id3"><path d="M 35 39 L 80.300781 39 L 80.300781 48 L 35 48 Z M 35 39 " clip-rule="nonzero"/></clipPath></defs><path fill="#000000" d="M 8.683594 39.40625 L 19.394531 23.847656 L 24.035156 29.269531 L 30.28125 21.507812 L 37.15625 30.992188 L 43.078125 29.609375 L 51.125 36.324219 C 47.84375 37.292969 42.824219 38.796875 39.511719 39.671875 C 28.585938 42.566406 18.789062 43.28125 8.695312 39.40625 Z M 25.949219 36.28125 L 19.394531 27.710938 L 15.449219 33.269531 L 18.4375 36.390625 L 17.1875 33.039062 L 21.371094 36.082031 L 18.800781 31.089844 L 25.949219 36.269531 Z M 25.949219 36.28125 " fill-opacity="1" fill-rule="evenodd"/><g clip-path="url(#id1)"><path fill="#ffffff" d="M 31.371094 20.132812 L 39.847656 9.570312 L 52.6875 27.816406 L 59.777344 19.851562 L 68.632812 31.476562 L 71.191406 29.042969 L 76.425781 36.875 C 74.554688 35.664062 72.496094 34.761719 70.195312 34.238281 C 65.308594 33.148438 60.195312 33.941406 55.417969 35.125 C 54.851562 35.257812 54.289062 35.40625 53.734375 35.554688 L 43.46875 27.105469 L 37.828125 29.433594 L 31.382812 20.132812 Z M 47.695312 24.710938 L 41.140625 16.136719 L 37.199219 21.695312 L 40.183594 24.816406 L 38.933594 21.464844 L 43.117188 24.507812 L 40.546875 19.515625 L 47.695312 24.695312 Z M 66.398438 32.179688 L 59.84375 23.605469 L 55.902344 29.164062 L 58.890625 32.285156 L 57.640625 28.933594 L 61.824219 31.976562 L 59.253906 26.996094 L 66.398438 32.164062 Z M 66.398438 32.179688 " fill-opacity="1" fill-rule="evenodd"/></g><g clip-path="url(#id2)"><path fill="#000000" d="M 2.398438 38.785156 C 33.214844 65.941406 54.234375 23.472656 80.300781 43.265625 C 62.5625 21.144531 36.175781 57.019531 2.398438 38.785156 Z M 2.398438 38.785156 " fill-opacity="1" fill-rule="evenodd"/></g><g clip-path="url(#id3)"><path fill="#ffffff" d="M 35.179688 47.601562 C 53.492188 49.226562 61.203125 33.347656 80.058594 45.285156 C 63.949219 31.453125 51.261719 45.324219 35.179688 47.601562 Z M 35.179688 47.601562 " fill-opacity="1" fill-rule="evenodd"/></g><g fill="#ffffff" fill-opacity="1"><g transform="translate(86.481156, 38.392967)"><g><path d="M 0.5 -10.078125 C 0.5 -11.148438 0.753906 -11.972656 1.265625 -12.546875 C 1.773438 -13.117188 2.539062 -13.40625 3.5625 -13.40625 C 4.582031 -13.40625 5.347656 -13.117188 5.859375 -12.546875 C 6.367188 -11.972656 6.625 -11.148438 6.625 -10.078125 L 6.625 -9.65625 L 4.65625 -9.65625 L 4.65625 -10.203125 C 4.65625 -10.679688 4.5625 -11.019531 4.375 -11.21875 C 4.195312 -11.414062 3.941406 -11.515625 3.609375 -11.515625 C 3.285156 -11.515625 3.03125 -11.414062 2.84375 -11.21875 C 2.664062 -11.019531 2.578125 -10.679688 2.578125 -10.203125 C 2.578125 -9.753906 2.675781 -9.351562 2.875 -9 C 3.082031 -8.65625 3.335938 -8.328125 3.640625 -8.015625 C 3.941406 -7.710938 4.265625 -7.40625 4.609375 -7.09375 C 4.953125 -6.78125 5.273438 -6.441406 5.578125 -6.078125 C 5.890625 -5.710938 6.144531 -5.296875 6.34375 -4.828125 C 6.539062 -4.359375 6.640625 -3.8125 6.640625 -3.1875 C 6.640625 -2.113281 6.378906 -1.285156 5.859375 -0.703125 C 5.335938 -0.128906 4.566406 0.15625 3.546875 0.15625 C 2.515625 0.15625 1.738281 -0.128906 1.21875 -0.703125 C 0.695312 -1.285156 0.4375 -2.113281 0.4375 -3.1875 L 0.4375 -4 L 2.40625 -4 L 2.40625 -3.046875 C 2.40625 -2.566406 2.5 -2.234375 2.6875 -2.046875 C 2.882812 -1.859375 3.148438 -1.765625 3.484375 -1.765625 C 3.816406 -1.765625 4.078125 -1.859375 4.265625 -2.046875 C 4.460938 -2.234375 4.5625 -2.566406 4.5625 -3.046875 C 4.5625 -3.503906 4.457031 -3.90625 4.25 -4.25 C 4.050781 -4.59375 3.800781 -4.921875 3.5 -5.234375 C 3.195312 -5.546875 2.867188 -5.851562 2.515625 -6.15625 C 2.171875 -6.46875 1.847656 -6.804688 1.546875 -7.171875 C 1.242188 -7.535156 0.992188 -7.953125 0.796875 -8.421875 C 0.597656 -8.890625 0.5 -9.441406 0.5 -10.078125 Z M 0.5 -10.078125 "/></g></g></g><g fill="#ffffff" fill-opacity="1"><g transform="translate(95.493832, 38.392967)"><g><path d="M 2.75 -13.25 L 2.75 -3.03125 C 2.75 -2.550781 2.84375 -2.21875 3.03125 -2.03125 C 3.226562 -1.84375 3.492188 -1.75 3.828125 -1.75 C 4.148438 -1.75 4.410156 -1.84375 4.609375 -2.03125 C 4.804688 -2.21875 4.90625 -2.550781 4.90625 -3.03125 L 4.90625 -13.25 L 6.875 -13.25 L 6.875 -3.15625 C 6.875 -2.082031 6.609375 -1.257812 6.078125 -0.6875 C 5.554688 -0.113281 4.785156 0.171875 3.765625 0.171875 C 2.742188 0.171875 1.96875 -0.113281 1.4375 -0.6875 C 0.914062 -1.257812 0.65625 -2.082031 0.65625 -3.15625 L 0.65625 -13.25 Z M 2.75 -13.25 "/></g></g></g><g fill="#ffffff" fill-opacity="1"><g transform="translate(104.960912, 38.392967)"><g><path d="M 5.171875 -3.84375 L 6.59375 -13.25 L 9.484375 -13.25 L 9.484375 0 L 7.515625 0 L 7.515625 -9.5 L 6.078125 0 L 4.109375 0 L 2.5625 -9.375 L 2.5625 0 L 0.734375 0 L 0.734375 -13.25 L 3.640625 -13.25 Z M 5.171875 -3.84375 "/></g></g></g><g fill="#ffffff" fill-opacity="1"><g transform="translate(117.135469, 38.392967)"><g><path d="M 5.171875 -3.84375 L 6.59375 -13.25 L 9.484375 -13.25 L 9.484375 0 L 7.515625 0 L 7.515625 -9.5 L 6.078125 0 L 4.109375 0 L 2.5625 -9.375 L 2.5625 0 L 0.734375 0 L 0.734375 -13.25 L 3.640625 -13.25 Z M 5.171875 -3.84375 "/></g></g></g><g fill="#ffffff" fill-opacity="1"><g transform="translate(129.310023, 38.392967)"><g><path d="M 0.75 -13.25 L 2.84375 -13.25 L 2.84375 0 L 0.75 0 Z M 0.75 -13.25 "/></g></g></g><g fill="#ffffff" fill-opacity="1"><g transform="translate(134.83895, 38.392967)"><g><path d="M 0.15625 -13.25 L 6.59375 -13.25 L 6.59375 -11.359375 L 4.40625 -11.359375 L 4.40625 0 L 2.328125 0 L 2.328125 -11.359375 L 0.15625 -11.359375 Z M 0.15625 -13.25 "/></g></g></g><g fill="#ffffff" fill-opacity="1"><g transform="translate(143.510826, 38.392967)"><g/></g></g><g fill="#ffffff" fill-opacity="1"><g transform="translate(148.377087, 38.392967)"><g><path d="M 0.75 -13.25 L 4.046875 -13.25 C 5.097656 -13.25 5.878906 -12.972656 6.390625 -12.421875 C 6.898438 -11.867188 7.15625 -11.054688 7.15625 -9.984375 L 7.15625 -3.28125 C 7.15625 -2.207031 6.898438 -1.390625 6.390625 -0.828125 C 5.878906 -0.273438 5.097656 0 4.046875 0 L 0.75 0 Z M 2.84375 -11.359375 L 2.84375 -1.890625 L 4.015625 -1.890625 C 4.335938 -1.890625 4.59375 -1.984375 4.78125 -2.171875 C 4.976562 -2.367188 5.078125 -2.707031 5.078125 -3.1875 L 5.078125 -10.078125 C 5.078125 -10.554688 4.976562 -10.890625 4.78125 -11.078125 C 4.59375 -11.265625 4.335938 -11.359375 4.015625 -11.359375 Z M 2.84375 -11.359375 "/></g></g></g><g fill="#ffffff" fill-opacity="1"><g transform="translate(158.033502, 38.392967)"><g><path d="M 2.84375 -7.671875 L 5.703125 -7.671875 L 5.703125 -5.78125 L 2.84375 -5.78125 L 2.84375 -1.890625 L 6.4375 -1.890625 L 6.4375 0 L 0.75 0 L 0.75 -13.25 L 6.4375 -13.25 L 6.4375 -11.359375 L 2.84375 -11.359375 Z M 2.84375 -7.671875 "/></g></g></g><g fill="#ffffff" fill-opacity="1"><g transform="translate(166.932576, 38.392967)"><g><path d="M 3.90625 -2.4375 L 5.484375 -13.25 L 7.40625 -13.25 L 5.359375 0 L 2.25 0 L 0.203125 -13.25 L 2.3125 -13.25 Z M 3.90625 -2.4375 "/></g></g></g><g fill="#ffffff" fill-opacity="1"><g transform="translate(86.287764, 39.526785)"><g><path d="M 24.984375 0.515625 L 24.984375 3.421875 L 0.65625 3.421875 L 0.65625 0.515625 Z M 24.984375 0.515625 "/></g></g></g><g fill="#ffffff" fill-opacity="1"><g transform="translate(107.595118, 39.526785)"><g><path d="M 24.984375 0.515625 L 24.984375 3.421875 L 0.65625 3.421875 L 0.65625 0.515625 Z M 24.984375 0.515625 "/></g></g></g><g fill="#ffffff" fill-opacity="1"><g transform="translate(131.12994, 39.526785)"><g><path d="M 24.984375 0.515625 L 24.984375 3.421875 L 0.65625 3.421875 L 0.65625 0.515625 Z M 24.984375 0.515625 "/></g></g></g><g fill="#ffffff" fill-opacity="1"><g transform="translate(151.993525, 39.526785)"><g><path d="M 24.984375 0.515625 L 24.984375 3.421875 L 0.65625 3.421875 L 0.65625 0.515625 Z M 24.984375 0.515625 "/></g></g></g></svg>